<?xml version="1.0" encoding="UTF-8"?>
<svg id="Layer_1" data-name="Layer 1" xmlns="http://www.w3.org/2000/svg" viewBox="0 0 727.72 97.6">
  <defs>
    <style>
      .cls-1 {
        fill: #9c9c9c;
      }

      .cls-2 {
        fill: #545454;
      }

      .cls-3 {
        fill: #828282;
      }

      .cls-4 {
        fill: #29d682;
      }

      .cls-5 {
        fill: #686868;
      }
    </style>
  </defs>
  <g>
    <circle class="cls-4" cx="48.7" cy="48.7" r="48.7"/>
    <g>
      <polygon class="cls-3" points="48.7 38 55.41 25.42 58.65 29.82 48.7 16.38 38.74 29.82 42.01 25.42 48.7 38"/>
      <polygon class="cls-3" points="36.53 60.88 48.7 68.96 60.88 60.88 48.7 38 36.53 60.88"/>
      <polygon class="cls-5" points="14.21 62.91 22.33 73.05 36.53 60.88 36.53 32.8 14.21 62.91"/>
      <polygon class="cls-2" points="60.88 32.8 60.88 60.88 75.09 73.05 83.21 62.91 60.88 32.8"/>
      <polygon class="cls-4" points="36.53 32.8 36.53 32.8 38.74 29.82 36.53 32.8"/>
      <polygon class="cls-4" points="60.88 32.8 58.65 29.82 60.88 32.8 60.88 32.8"/>
      <polygon class="cls-5" points="58.65 29.82 55.41 25.42 48.7 38 60.88 60.88 60.88 32.8 58.65 29.82"/>
      <polygon class="cls-1" points="42.01 25.42 38.74 29.82 36.53 32.8 36.53 60.88 48.7 38 42.01 25.42"/>
    </g>
  </g>
  <g>
    <path d="M116.6,78.11l21.51-58.83h11.26l21.51,58.83h-10.67l-16.56-47.06-16.56,47.06h-10.5ZM126.18,64.24l2.69-7.98h28.99l2.69,7.98h-34.37Z"/>
    <path d="M174.25,78.11V19.28h18.99c6.83,0,12.48,1.21,16.93,3.61,4.45,2.41,7.76,5.81,9.92,10.21,2.16,4.4,3.24,9.62,3.24,15.67s-1.08,11.11-3.24,15.51c-2.16,4.4-5.46,7.8-9.92,10.21-4.45,2.41-10.1,3.61-16.93,3.61h-18.99ZM184.33,69.53h8.4c5.1,0,9.12-.83,12.06-2.48,2.94-1.65,5.04-4.03,6.3-7.14,1.26-3.11,1.89-6.82,1.89-11.14s-.63-8.11-1.89-11.22c-1.26-3.11-3.36-5.52-6.3-7.23-2.94-1.71-6.96-2.56-12.06-2.56h-8.4v41.77Z"/>
    <path d="M248.2,79.11c-4.26,0-8.04-.76-11.35-2.27-3.31-1.51-5.88-3.67-7.73-6.47-1.85-2.8-2.8-6.13-2.86-10h10.67c0,1.96.46,3.71,1.39,5.25.92,1.54,2.21,2.76,3.87,3.66,1.65.9,3.66,1.34,6.01,1.34,2.02,0,3.77-.32,5.25-.97,1.48-.64,2.63-1.57,3.45-2.77.81-1.2,1.22-2.62,1.22-4.24,0-1.85-.43-3.38-1.3-4.58-.87-1.2-2.06-2.23-3.57-3.07-1.51-.84-3.25-1.58-5.21-2.23-1.96-.64-4.03-1.33-6.22-2.06-4.65-1.57-8.15-3.57-10.5-6.01-2.35-2.44-3.53-5.7-3.53-9.79,0-3.42.81-6.36,2.44-8.82,1.62-2.46,3.91-4.38,6.85-5.76,2.94-1.37,6.34-2.06,10.21-2.06s7.35.7,10.29,2.1c2.94,1.4,5.27,3.35,6.98,5.84,1.71,2.49,2.59,5.48,2.65,8.95h-10.76c-.06-1.46-.45-2.82-1.18-4.08-.73-1.26-1.78-2.3-3.15-3.11-1.37-.81-3.04-1.22-5-1.22-1.68-.06-3.18.21-4.5.8-1.32.59-2.35,1.43-3.11,2.52-.76,1.09-1.13,2.45-1.13,4.08s.35,2.87,1.05,3.91c.7,1.04,1.72,1.91,3.07,2.61,1.34.7,2.91,1.36,4.71,1.97,1.79.62,3.75,1.29,5.88,2.02,2.91.95,5.56,2.12,7.94,3.49,2.38,1.37,4.27,3.15,5.67,5.34,1.4,2.18,2.1,5.01,2.1,8.49,0,3.03-.79,5.84-2.35,8.45-1.57,2.61-3.87,4.71-6.89,6.3s-6.81,2.4-11.35,2.4Z"/>
    <path d="M274.25,57.52v-8.4h34.79v8.4h-34.79Z"/>
    <path d="M316.69,78.11V19.28h23.03c4.15,0,7.61.64,10.38,1.93,2.77,1.29,4.86,3.07,6.26,5.34,1.4,2.27,2.1,4.89,2.1,7.86s-.65,5.46-1.93,7.48c-1.29,2.02-2.98,3.56-5.08,4.62-2.1,1.06-4.38,1.71-6.85,1.93l1.26-.92c2.63.06,5,.76,7.1,2.1,2.1,1.34,3.77,3.1,5,5.25,1.23,2.16,1.85,4.55,1.85,7.18,0,3.08-.74,5.84-2.23,8.28-1.49,2.44-3.66,4.34-6.51,5.71-2.86,1.37-6.36,2.06-10.5,2.06h-23.87ZM326.77,44.15h11.51c3.25,0,5.71-.74,7.4-2.23,1.68-1.48,2.52-3.54,2.52-6.18s-.84-4.61-2.52-6.09c-1.68-1.48-4.17-2.23-7.48-2.23h-11.43v16.72ZM326.77,69.87h12.27c3.31,0,5.88-.78,7.73-2.35,1.85-1.57,2.77-3.75,2.77-6.55s-.95-5.03-2.86-6.68c-1.91-1.65-4.51-2.48-7.82-2.48h-12.1v18.07Z"/>
    <path d="M380.56,78.11V19.28h37.98v8.15h-27.9v16.89h25.38v7.98h-25.38v17.65h27.9v8.15h-37.98Z"/>
    <path d="M420.14,78.11l14.96-21.18-14.96-21.18h10.84l10.59,15.38,10.59-15.38h10.84l-14.96,21.18,14.96,21.18h-10.84l-10.59-15.38-10.59,15.38h-10.84Z"/>
    <path d="M483.5,79.11c-4.15,0-7.86-.94-11.13-2.82-3.28-1.88-5.83-4.48-7.65-7.82-1.82-3.33-2.73-7.13-2.73-11.39s.91-8.31,2.73-11.64c1.82-3.33,4.37-5.95,7.65-7.86,3.28-1.9,7.02-2.86,11.22-2.86,5.27,0,9.69,1.39,13.28,4.16,3.58,2.77,5.88,6.57,6.89,11.39h-10.59c-.56-2.13-1.72-3.81-3.49-5.04-1.76-1.23-3.85-1.85-6.26-1.85-2.07,0-3.96.53-5.67,1.6-1.71,1.06-3.05,2.6-4.03,4.62-.98,2.02-1.47,4.45-1.47,7.31,0,2.19.28,4.12.84,5.8.56,1.68,1.36,3.1,2.4,4.24,1.04,1.15,2.23,2.03,3.57,2.65,1.34.62,2.8.92,4.37.92s3.09-.27,4.41-.8c1.32-.53,2.44-1.33,3.36-2.4.92-1.06,1.58-2.32,1.97-3.78h10.59c-1.01,4.71-3.31,8.48-6.89,11.3-3.59,2.83-8.04,4.24-13.36,4.24Z"/>
    <path d="M508.8,78.11V17.6h10.08v24.71c1.4-2.3,3.31-4.13,5.71-5.5,2.41-1.37,5.13-2.06,8.15-2.06,3.47,0,6.42.71,8.82,2.14,2.41,1.43,4.24,3.53,5.5,6.3s1.89,6.23,1.89,10.38v24.54h-10v-23.62c0-3.64-.77-6.41-2.31-8.32-1.54-1.9-3.88-2.86-7.02-2.86-2.02,0-3.84.49-5.46,1.47-1.63.98-2.91,2.38-3.87,4.2-.95,1.82-1.43,4.05-1.43,6.68v22.44h-10.08Z"/>
    <path d="M569.05,79.11c-3.47,0-6.36-.59-8.66-1.76-2.3-1.18-4.01-2.75-5.13-4.71-1.12-1.96-1.68-4.09-1.68-6.39,0-2.69.69-5.01,2.06-6.97,1.37-1.96,3.4-3.49,6.09-4.58,2.69-1.09,5.99-1.64,9.92-1.64h10.67c0-2.24-.31-4.1-.92-5.59-.62-1.48-1.57-2.59-2.86-3.32-1.29-.73-2.94-1.09-4.96-1.09-2.3,0-4.26.52-5.88,1.55-1.63,1.04-2.63,2.62-3.03,4.75h-9.92c.34-3.03,1.34-5.62,3.03-7.77,1.68-2.16,3.91-3.84,6.68-5.04,2.77-1.2,5.81-1.81,9.12-1.81,3.98,0,7.37.69,10.17,2.06,2.8,1.37,4.94,3.33,6.43,5.88,1.48,2.55,2.23,5.62,2.23,9.2v26.22h-8.57l-1.01-6.81c-.56,1.12-1.28,2.16-2.14,3.11-.87.95-1.86,1.78-2.98,2.48-1.12.7-2.4,1.25-3.82,1.64-1.43.39-3.04.59-4.83.59ZM571.32,71.13c1.62,0,3.07-.29,4.33-.88,1.26-.59,2.35-1.43,3.28-2.52.92-1.09,1.64-2.31,2.14-3.66s.84-2.77,1.01-4.29v-.17h-9.33c-1.96,0-3.59.25-4.87.76-1.29.5-2.21,1.19-2.77,2.06-.56.87-.84,1.89-.84,3.07s.28,2.18.84,3.03c.56.84,1.37,1.48,2.44,1.93,1.06.45,2.32.67,3.78.67Z"/>
    <path d="M598.47,78.11v-42.36h8.91l.76,7.06c1.29-2.46,3.14-4.43,5.55-5.88,2.41-1.46,5.27-2.19,8.57-2.19s6.33.71,8.74,2.14c2.41,1.43,4.27,3.52,5.59,6.26,1.32,2.75,1.97,6.16,1.97,10.25v24.71h-10.08v-23.78c0-3.53-.79-6.25-2.35-8.15-1.57-1.9-3.89-2.86-6.98-2.86-2.02,0-3.82.48-5.42,1.43-1.6.95-2.86,2.34-3.78,4.16-.92,1.82-1.39,4.02-1.39,6.6v22.61h-10.08Z"/>
    <path d="M662.33,97.6c-3.98,0-7.47-.49-10.46-1.47-3-.98-5.32-2.47-6.98-4.45-1.65-1.99-2.48-4.47-2.48-7.44,0-1.74.43-3.43,1.3-5.08.87-1.65,2.19-3.19,3.95-4.62s4.02-2.67,6.76-3.74l4.45,4.87c-2.69.95-4.57,2.1-5.63,3.45s-1.6,2.72-1.6,4.12.46,2.67,1.39,3.66c.92.98,2.19,1.72,3.78,2.23,1.6.5,3.4.76,5.42.76s3.67-.27,5.13-.8c1.46-.53,2.59-1.27,3.4-2.23.81-.95,1.22-2.1,1.22-3.45,0-1.68-.59-3.04-1.76-4.08-1.18-1.04-3.5-1.67-6.98-1.89-2.97-.22-5.58-.55-7.82-.97-2.24-.42-4.16-.91-5.76-1.47-1.6-.56-2.96-1.19-4.08-1.89-1.12-.7-2.04-1.41-2.77-2.14v-1.93l8.82-9.24,7.48,2.44-9.92,9.66,2.6-4.87c.56.39,1.13.76,1.72,1.09.59.34,1.34.63,2.27.88.92.25,2.14.49,3.66.71,1.51.22,3.47.45,5.88.67,3.75.28,6.81.95,9.16,2.02,2.35,1.07,4.09,2.49,5.21,4.29,1.12,1.79,1.68,3.95,1.68,6.47s-.69,4.79-2.06,6.98c-1.37,2.18-3.46,3.98-6.26,5.38s-6.39,2.1-10.76,2.1ZM662.33,65.42c-3.53,0-6.57-.69-9.12-2.06-2.55-1.37-4.5-3.22-5.84-5.55-1.34-2.32-2.02-4.89-2.02-7.69s.67-5.43,2.02-7.73c1.34-2.3,3.29-4.15,5.84-5.55,2.55-1.4,5.59-2.1,9.12-2.1s6.56.7,9.08,2.1c2.52,1.4,4.45,3.25,5.8,5.55,1.34,2.3,2.02,4.87,2.02,7.73s-.67,5.37-2.02,7.69c-1.34,2.33-3.28,4.17-5.8,5.55-2.52,1.37-5.55,2.06-9.08,2.06ZM662.33,57.6c2.41,0,4.34-.64,5.8-1.93,1.46-1.29,2.19-3.14,2.19-5.55s-.73-4.24-2.19-5.5c-1.46-1.26-3.39-1.89-5.8-1.89s-4.37.63-5.88,1.89-2.27,3.1-2.27,5.5.76,4.26,2.27,5.55c1.51,1.29,3.47,1.93,5.88,1.93ZM669.31,43.15l-1.93-7.4h17.4v6.39l-15.46,1.01Z"/>
    <path d="M707.13,79.11c-4.2,0-7.9-.91-11.09-2.73-3.19-1.82-5.69-4.38-7.48-7.69-1.79-3.31-2.69-7.11-2.69-11.43s.88-8.4,2.65-11.77c1.77-3.36,4.26-5.99,7.48-7.9,3.22-1.9,6.96-2.86,11.22-2.86s7.76.92,10.84,2.77c3.08,1.85,5.46,4.33,7.14,7.44,1.68,3.11,2.52,6.6,2.52,10.46v1.85c0,.67-.06,1.37-.17,2.1h-34.46v-6.47h24.46c-.11-3.08-1.15-5.5-3.11-7.27-1.96-1.76-4.4-2.65-7.31-2.65-2.07,0-3.98.48-5.71,1.43-1.74.95-3.11,2.37-4.12,4.24-1.01,1.88-1.51,4.24-1.51,7.1v2.44c0,2.63.49,4.9,1.47,6.81.98,1.91,2.32,3.35,4.03,4.33,1.71.98,3.63,1.47,5.76,1.47,2.35,0,4.3-.5,5.84-1.51,1.54-1.01,2.67-2.35,3.4-4.03h10.25c-.79,2.63-2.07,5-3.87,7.1-1.79,2.1-4.01,3.75-6.64,4.96-2.63,1.2-5.6,1.81-8.91,1.81Z"/>
  </g>
</svg>